<?xml version="1.0" encoding="UTF-8" standalone="no"?>
<!-- Created with Inkscape (http://www.inkscape.org/) -->

<svg
   xmlns:dc="http://purl.org/dc/elements/1.1/"
   xmlns:cc="http://creativecommons.org/ns#"
   xmlns:rdf="http://www.w3.org/1999/02/22-rdf-syntax-ns#"
   xmlns:svg="http://www.w3.org/2000/svg"
   xmlns="http://www.w3.org/2000/svg"
   xmlns:sodipodi="http://sodipodi.sourceforge.net/DTD/sodipodi-0.dtd"
   xmlns:inkscape="http://www.inkscape.org/namespaces/inkscape"
   width="320mm"
   height="320mm"
   viewBox="0 0 320 320"
   version="1.1"
   id="svg8"
   inkscape:version="0.92.4 (5da689c313, 2019-01-14)"
   sodipodi:docname="Sanduhr_T2.svg">
  <defs
     id="defs2" />
  <sodipodi:namedview
     id="base"
     pagecolor="#ffffff"
     bordercolor="#666666"
     borderopacity="1.0"
     inkscape:pageopacity="0.0"
     inkscape:pageshadow="2"
     inkscape:zoom="5.9134375"
     inkscape:cx="935.62842"
     inkscape:cy="884.77449"
     inkscape:document-units="mm"
     inkscape:current-layer="layer1"
     showgrid="true"
     inkscape:window-width="3840"
     inkscape:window-height="2067"
     inkscape:window-x="0"
     inkscape:window-y="0"
     inkscape:window-maximized="1"
     inkscape:snap-center="true"
     inkscape:snap-page="true"
     inkscape:snap-object-midpoints="true"
     showguides="true"
     inkscape:guide-bbox="true"
     inkscape:snap-smooth-nodes="true"
     inkscape:snap-midpoints="true"
     inkscape:object-paths="true"
     inkscape:snap-bbox="true"
     inkscape:bbox-nodes="true"
     inkscape:snap-bbox-edge-midpoints="true"
     inkscape:snap-bbox-midpoints="true"
     inkscape:bbox-paths="false"
     inkscape:snap-intersection-paths="true"
     inkscape:snap-text-baseline="true">
    <sodipodi:guide
       position="-49.999999,160"
       orientation="0,1"
       id="guide4687"
       inkscape:locked="true"
       inkscape:label=""
       inkscape:color="rgb(0,0,255)" />
    <sodipodi:guide
       position="160,-19.999999"
       orientation="1,0"
       id="guide4689"
       inkscape:locked="true"
       inkscape:label=""
       inkscape:color="rgb(0,0,255)" />
    <inkscape:grid
       type="axonomgrid"
       id="grid4691"
       units="mm"
       empspacing="12"
       originx="160"
       originy="160"
       spacingy="49.999999"
       gridanglex="60"
       gridanglez="60" />
  </sodipodi:namedview>
  <metadata
     id="metadata5">
    <rdf:RDF>
      <cc:Work
         rdf:about="">
        <dc:format>image/svg+xml</dc:format>
        <dc:type
           rdf:resource="http://purl.org/dc/dcmitype/StillImage" />
        <dc:title></dc:title>
        <cc:license
           rdf:resource="http://creativecommons.org/licenses/by-sa/4.0/" />
        <dc:date>23.11.2019</dc:date>
        <dc:creator>
          <cc:Agent>
            <dc:title>Stefan Krüger</dc:title>
          </cc:Agent>
        </dc:creator>
        <dc:rights>
          <cc:Agent>
            <dc:title>Stefan Krüger</dc:title>
          </cc:Agent>
        </dc:rights>
        <dc:publisher>
          <cc:Agent>
            <dc:title>Stefan Krüger</dc:title>
          </cc:Agent>
        </dc:publisher>
        <dc:language>EN / DE</dc:language>
      </cc:Work>
      <cc:License
         rdf:about="http://creativecommons.org/licenses/by-sa/4.0/">
        <cc:permits
           rdf:resource="http://creativecommons.org/ns#Reproduction" />
        <cc:permits
           rdf:resource="http://creativecommons.org/ns#Distribution" />
        <cc:requires
           rdf:resource="http://creativecommons.org/ns#Notice" />
        <cc:requires
           rdf:resource="http://creativecommons.org/ns#Attribution" />
        <cc:permits
           rdf:resource="http://creativecommons.org/ns#DerivativeWorks" />
        <cc:requires
           rdf:resource="http://creativecommons.org/ns#ShareAlike" />
      </cc:License>
    </rdf:RDF>
  </metadata>
  <g
     inkscape:label="Layer 1"
     inkscape:groupmode="layer"
     id="layer1"
     transform="translate(0,23)">
    <g
       id="g835"
       transform="translate(13.418071,-80.596271)">
      <path
         inkscape:connector-curvature="0"
         d="M 22.825936,7.8726182 C 23.081988,6.8610029 23.998762,5.1118645 23.60086,4.0000218 23.446194,3.5678432 22.656875,3.4467575 22.30093,3.3664088 22.095938,3.3547671 21.890842,3.3181422 21.685954,3.3314833 20.759489,3.3918088 19.88635,3.8584994 19.08586,4.2813779 18.013316,4.8479752 17.659551,5.088092 16.611972,5.7294054 c -1.461492,0.9469779 -2.831988,2.0670914 -3.61889,3.6579955 -0.446709,0.9031241 -0.440439,1.1645611 -0.644609,2.1285651 -0.08489,0.864412 -0.0708,1.736559 0.370716,2.513601 0.423665,0.745625 1.1372,1.213235 1.817265,1.692307 1.62189,0.934936 3.449625,1.390443 5.237864,1.886805 2.088028,0.579574 0.967103,0.251762 3.006455,0.87347 1.298793,0.483334 2.676535,0.901312 3.818617,1.720207 0.513654,0.368302 1.091301,0.891641 1.208622,1.566534 0.05517,0.317386 -0.06219,0.641283 -0.09328,0.961925 -0.190082,0.31838 -0.344699,0.660818 -0.570246,0.95514 -0.438192,0.571806 -1.429669,1.463432 -1.951909,1.922201 -0.656565,0.576772 -1.631154,1.391089 -2.351769,1.887164 -0.417092,0.287128 -0.860526,0.533974 -1.290789,0.800962 -0.47066,0.216424 -0.928471,0.463317 -1.411979,0.649277 -1.797863,0.691462 -3.780612,0.998143 -5.702717,0.985311 -0.325521,-0.0021 -0.650037,-0.0364 -0.975056,-0.05461 -0.769003,-0.475179 -0.403214,-0.303496 -1.074404,-0.561375 0,0 0.007,-0.02564 0.007,-0.02564 v 0 c 0.675879,0.109427 0.304509,0.114361 1.108541,-0.112228 0.304113,0.01878 0.607665,0.05307 0.91234,0.05633 1.830951,0.01958 3.723232,-0.263673 5.439912,-0.911526 0.458144,-0.172897 0.892458,-0.403334 1.338686,-0.605002 0.412997,-0.253568 0.838978,-0.487114 1.238991,-0.760709 0.695124,-0.47544 1.676633,-1.290544 2.310001,-1.843103 0.529406,-0.46186 1.375098,-1.22256 1.841283,-1.78224 0.180739,-0.216987 0.317582,-0.467057 0.476371,-0.700586 0.04831,-0.196742 0.16238,-0.388395 0.14492,-0.590227 -0.04801,-0.555014 -0.532675,-0.974707 -0.936334,-1.267607 -1.096401,-0.795564 -2.428144,-1.194975 -3.678465,-1.66251 -2.027912,-0.620429 -0.900674,-0.289841 -2.99049,-0.870162 -1.860871,-0.516745 -3.760601,-0.995688 -5.440359,-1.984618 -0.787655,-0.562283 -1.573213,-1.104764 -2.04612,-1.98301 -0.485955,-0.902477 -0.50756,-1.900853 -0.401251,-2.894284 0.232484,-1.05079 0.230331,-1.346949 0.726713,-2.3275287 0.848177,-1.6755345 2.290977,-2.8669781 3.843403,-3.8641392 1.012504,-0.6139185 1.488312,-0.9257869 2.529727,-1.4675122 0.909094,-0.4728943 1.870494,-0.9513597 2.917563,-0.9919573 0.239629,-0.00929 0.478044,0.038832 0.717066,0.058249 0.699455,0.1865458 1.476792,0.3560493 1.724392,1.1703217 0.363416,1.1951485 -0.544019,3.0194109 -0.861032,4.1035443 0,0 -0.482753,-0.1861289 -0.482753,-0.1861289 z"
         id="path817"
         style="opacity:1;vector-effect:none;fill:#000040;fill-opacity:1;fill-rule:nonzero;stroke:none;stroke-width:5;stroke-linecap:round;stroke-linejoin:round;stroke-miterlimit:4;stroke-dasharray:none;stroke-dashoffset:0;stroke-opacity:0.97058835;paint-order:fill markers stroke" />
      <path
         inkscape:connector-curvature="0"
         d="m 37.465484,20.080952 c -1.305116,0.743203 -2.8043,1.519069 -3.401518,3.006794 -0.322366,0.803041 -0.125172,1.722102 0.0058,2.535331 0.137547,0.457102 0.279771,1.163215 0.892668,1.20154 0.620347,0.03879 1.150985,-0.506908 1.571871,-0.861338 0.890203,-0.898489 1.508942,-2.011762 2.308248,-2.984198 0.599446,-0.729284 0.622676,-0.707819 1.302938,-1.332382 0.489554,-0.385081 0.974537,-0.804291 1.536026,-1.086217 0.08747,-0.04392 0.180012,-0.127818 0.274814,-0.10346 0.198136,0.05091 0.433766,0.129398 0.529582,0.310143 0.09196,0.173466 -0.03618,0.390995 -0.05426,0.586492 -0.34767,1.04557 -0.71387,2.087048 -0.941755,3.167352 -0.179245,0.849713 -0.179203,1.030483 -0.271928,1.871795 0.0288,0.412138 -0.128109,1.141121 0.299357,1.442119 0.24026,0.16918 0.693939,0.08478 0.948571,0.04717 0.432512,-0.183531 0.470413,-0.158012 0.84169,-0.513455 0.186317,-0.178372 0.321048,-0.4088 0.519742,-0.573273 0.240993,-0.199491 0.590489,-0.267031 0.788247,-0.50945 0.437703,-0.536552 0.71774,-1.184371 1.07661,-1.776557 0,0 0.02313,0.01311 0.02313,0.01311 v 0 c -0.326845,0.617432 -0.689213,1.217331 -0.980538,1.852295 -0.141637,0.308707 -0.144433,0.675073 -0.314047,0.969337 -0.20129,0.349221 -0.885875,0.917797 -1.257345,1.118137 -0.19046,0.102719 -0.406993,0.147183 -0.610489,0.220774 -0.63591,0.05323 -1.202327,0.116184 -1.702496,-0.40082 -0.507198,-0.524269 -0.429532,-1.321829 -0.424659,-1.978061 0.03594,-0.316575 0.06089,-0.634593 0.107834,-0.949725 0.214283,-1.438521 0.650999,-2.82478 1.139235,-4.19066 0.202541,-0.118162 0.173953,-0.133916 0.533252,0.02569 0.04407,0.01958 -0.09614,0.01701 -0.139624,0.03785 -0.119671,0.05733 -0.234526,0.124695 -0.346913,0.195238 -0.476017,0.298786 -0.602012,0.417563 -1.069504,0.780601 -0.63027,0.563702 -0.664321,0.554806 -1.224968,1.225059 -0.842415,1.007106 -1.488676,2.171577 -2.443173,3.085684 -0.535927,0.423172 -0.852779,0.779307 -1.543333,0.928741 -0.826916,0.178943 -1.460768,-0.21984 -1.79909,-0.960173 -0.109752,-0.240165 -0.152048,-0.505748 -0.228071,-0.758622 -0.143664,-0.98608 -0.312968,-2.015905 0.107095,-2.973415 0.695127,-1.584503 2.262159,-2.438485 3.697783,-3.225027 0,0 0.249232,0.555584 0.249232,0.555584 z"
         id="path819"
         style="opacity:1;vector-effect:none;fill:#000040;fill-opacity:1;fill-rule:nonzero;stroke:none;stroke-width:5;stroke-linecap:round;stroke-linejoin:round;stroke-miterlimit:4;stroke-dasharray:none;stroke-dashoffset:0;stroke-opacity:0.97058835;paint-order:fill markers stroke" />
      <path
         inkscape:connector-curvature="0"
         d="m 52.080651,21.316899 c -0.23137,0.787439 -0.799462,2.693319 -1.026419,3.560781 -0.08192,0.313098 -0.160618,0.627723 -0.215844,0.946613 -0.01982,0.114454 0.05442,0.250683 -0.0084,0.348371 -0.04583,0.07123 -0.01434,-0.174192 -0.0563,-0.247767 -0.02796,-0.04903 -0.09307,-0.06388 -0.139605,-0.09582 0.695881,-0.688097 1.165175,-1.568533 1.651326,-2.408161 0.122698,-0.210595 0.350991,-0.619282 0.508738,-0.837954 0.04798,-0.06651 0.08025,-0.20166 0.160787,-0.1862 0.266944,0.05125 0.546905,0.159428 0.732796,0.357746 0.09429,0.100592 0.04869,0.946806 0.04681,1.027964 -0.0068,0.925244 -0.314476,2.037551 -0.0067,2.93614 0.0356,0.103944 0.100073,0.19563 0.150109,0.293447 0.418587,0.494744 1.021209,0.872305 1.684769,0.902372 0.191341,0.0087 0.38251,-0.02077 0.573767,-0.03114 0.888085,0.267549 0.444836,0.247602 1.328706,0.07968 0,0 0.0073,0.02556 0.0073,0.02556 v 0 c -0.885315,0.338127 -0.445498,0.117272 -1.306629,0.687504 -0.250124,0.006 -0.50097,0.03783 -0.750369,0.01789 -0.91849,-0.07344 -1.729777,-0.612396 -2.255605,-1.344734 -0.06898,-0.155691 -0.156133,-0.304541 -0.206951,-0.467069 -0.315693,-1.00963 -0.03462,-2.099255 -0.0016,-3.125367 0.0067,-0.150202 0.01646,-0.300299 0.01998,-0.450608 0.0097,-0.412931 -0.121211,-0.329193 0.539586,-0.389134 0.0401,-0.0036 -0.06484,0.04932 -0.08942,0.08122 -0.158861,0.206084 -0.387813,0.598713 -0.507193,0.793875 -0.549524,0.914004 -1.079961,1.911498 -1.940544,2.571776 -0.154099,0.03639 -0.31178,0.158314 -0.462293,0.109165 -0.365149,-0.119235 -0.256914,-0.548994 -0.207315,-0.77901 0.330571,-1.53307 0.920644,-2.99995 1.324301,-4.51236 0,0 0.452165,0.135212 0.452165,0.135212 z"
         id="path821"
         style="opacity:1;vector-effect:none;fill:#000040;fill-opacity:1;fill-rule:nonzero;stroke:none;stroke-width:5;stroke-linecap:round;stroke-linejoin:round;stroke-miterlimit:4;stroke-dasharray:none;stroke-dashoffset:0;stroke-opacity:0.97058835;paint-order:fill markers stroke" />
      <path
         inkscape:connector-curvature="0"
         d="m 63.192477,23.293978 c -1.580034,0.749101 -2.891383,1.418915 -3.403553,3.219536 -0.247168,0.868964 -0.06281,1.845797 0.02997,2.722457 0.0019,0.02125 0.0136,0.637762 0.138427,0.748906 0.02991,0.02663 0.05636,-0.05872 0.09159,-0.07779 0.09956,-0.05387 0.209102,-0.08746 0.309713,-0.139358 0.990687,-0.51103 0.710681,-0.381032 1.773968,-1.1899 2.770031,-2.446634 4.664527,-5.660097 6.278517,-8.944226 0.344302,-0.700584 0.657926,-1.415831 0.986891,-2.123747 0.836776,-1.935434 1.613397,-3.902837 2.168974,-5.939905 0.206584,-0.757455 0.487215,-2.0041782 0.571836,-2.8322613 0.0232,-0.2270175 -6.6e-5,-0.4563996 -1e-4,-0.6845996 -0.128249,0.194736 0.100359,0.4160602 0.02944,0.6051553 -0.131448,0.3504782 -0.399153,0.6339496 -0.577961,0.9627986 -0.254635,0.468313 -0.498369,0.943063 -0.72154,1.427163 -0.792827,1.719809 -0.754351,1.796237 -1.346917,3.637373 -0.147582,0.678108 -0.326332,1.350176 -0.442749,2.034323 -0.375083,2.204213 -0.531939,5.031759 0.0067,7.225058 0.105828,0.430917 0.283818,0.840835 0.42573,1.261252 0.198692,0.344277 0.365477,0.709057 0.596075,1.032832 0.763212,1.071599 1.939822,1.909259 3.184633,2.325181 0.216527,0.07234 0.444524,0.104262 0.666785,0.156393 0.556712,0.436782 0.261704,0.34068 0.846989,0.385982 0,0 0.0019,0.02652 0.0019,0.02652 v 0 c -0.629348,0.13164 -0.279828,0.03137 -1.033526,0.348969 -0.262689,-0.06551 -0.532027,-0.108558 -0.788072,-0.196535 -1.402792,-0.481999 -2.710193,-1.439196 -3.557442,-2.66038 -0.255447,-0.368187 -0.438806,-0.781479 -0.658209,-1.172219 -0.151299,-0.460082 -0.340466,-0.909394 -0.453895,-1.380244 -0.553218,-2.296405 -0.395121,-5.213134 0.0021,-7.519005 0.122061,-0.70875 0.308327,-1.404932 0.462489,-2.107398 0.213776,-0.659362 0.399691,-1.328417 0.641324,-1.978087 0.38332,-1.030601 0.967182,-2.277144 1.506918,-3.2496933 0.299519,-0.5397021 0.766514,-1.5700544 1.582447,-1.6201501 0.201848,-0.012393 0.261091,0.3088923 0.391639,0.4633384 -0.0056,0.2658546 0.0122,0.5332388 -0.01683,0.7975639 -0.09649,0.8787231 -0.383254,2.1163151 -0.610055,2.9299481 -0.575887,2.06596 -1.370026,4.06193 -2.230427,6.023545 -0.33637,0.715585 -0.657219,1.438674 -1.00911,2.146755 -1.673442,3.36732 -3.64014,6.655592 -6.5093,9.14481 -0.607629,0.450223 -1.830938,1.556015 -2.738419,1.375717 -0.584576,-0.116144 -0.527492,-0.768572 -0.556086,-1.190617 -0.07589,-0.983065 -0.232791,-2.040149 0.08626,-3.002461 0.642959,-1.939278 1.997247,-2.616366 3.740724,-3.414821 0,0 0.132318,0.421822 0.132318,0.421822 z"
         id="path823"
         style="opacity:1;vector-effect:none;fill:#000040;fill-opacity:1;fill-rule:nonzero;stroke:none;stroke-width:5;stroke-linecap:round;stroke-linejoin:round;stroke-miterlimit:4;stroke-dasharray:none;stroke-dashoffset:0;stroke-opacity:0.97058835;paint-order:fill markers stroke" />
      <path
         inkscape:connector-curvature="0"
         d="m 90.771074,9.6951037 c -1.40702,2.7689343 -2.741808,5.6087933 -3.556418,8.6177263 -0.467175,1.725608 -0.47157,2.15181 -0.720855,3.916827 -0.11639,1.772147 -0.224914,3.617163 0.338024,5.336822 0.216083,0.660088 0.562853,1.382038 1.219129,1.726333 0.231161,0.121271 0.512212,0.101033 0.768318,0.151553 0.28965,-0.06845 0.592063,-0.09618 0.868955,-0.205333 0.801587,-0.315986 1.538018,-0.873302 2.178532,-1.429075 1.471117,-1.276493 2.687756,-2.784607 3.909618,-4.29035 1.235765,-1.596627 2.209519,-3.365702 2.973816,-5.230981 0.552463,-1.348302 0.962734,-2.756448 1.405967,-4.142984 0.57993,-0.596662 0.38402,-0.316869 0.66519,-0.779444 0,0 0.0249,0.0092 0.0249,0.0092 v 0 c -0.0844,0.527325 -0.0586,0.192547 0.0441,1.00636 -0.45729,1.413361 -0.88166,2.84682 -1.451868,4.220281 -0.797579,1.921134 -1.812155,3.739306 -3.096641,5.379756 -1.266899,1.538987 -2.528586,3.085561 -4.058999,4.377865 -0.696796,0.588383 -1.579743,1.240335 -2.469775,1.530972 -0.371096,0.121182 -0.771194,0.121848 -1.156792,0.182774 -0.348001,-0.106018 -0.732965,-0.129379 -1.044006,-0.318056 -0.736137,-0.446539 -1.137381,-1.284626 -1.380252,-2.063265 -0.559351,-1.79326 -0.444215,-3.70387 -0.305512,-5.544632 0.270804,-1.82392 0.272293,-2.218388 0.765027,-3.999695 0.839859,-3.036228 2.191414,-5.902129 3.632919,-8.6912419 0,0 0.446625,0.2385819 0.446625,0.2385819 z"
         id="path825"
         style="opacity:1;vector-effect:none;fill:#000040;fill-opacity:1;fill-rule:nonzero;stroke:none;stroke-width:5;stroke-linecap:round;stroke-linejoin:round;stroke-miterlimit:4;stroke-dasharray:none;stroke-dashoffset:0;stroke-opacity:0.97058835;paint-order:fill markers stroke" />
      <path
         inkscape:connector-curvature="0"
         d="m 105.4586,10.872491 c -0.075,0.999835 -0.14493,2.000067 -0.22507,2.999505 -0.17403,2.170365 -0.28621,3.454433 -0.52435,5.57834 -0.23957,2.136771 -0.52813,4.268958 -0.79498,6.402455 -0.1546,1.620661 -0.44129,3.244753 -0.41807,4.879097 0.002,0.147291 -0.0237,0.9422 0.26813,1.134494 0.0477,0.03144 0.0872,-0.07382 0.13085,-0.110734 1.18383,-0.952616 2.10436,-2.169789 3.11002,-3.296536 0.26089,-0.292309 0.53095,-0.576302 0.79643,-0.864452 0.47919,-0.474154 0.87902,-0.902012 1.40873,-1.313715 0.20528,-0.159547 0.70624,-0.546303 1.04094,-0.468913 0.60571,0.140057 0.6096,0.465024 0.8088,0.942706 0.17065,0.41979 0.24824,1.377817 0.73349,1.590527 0.0598,0.02619 0.3626,-0.0024 0.38813,-0.0039 0.66926,-0.02445 1.353,-0.209106 2.02258,-0.08091 0.13832,0.02648 0.27076,0.07761 0.40614,0.11642 0.63118,0.25858 1.20139,0.638421 1.81402,0.934503 0.42579,0.205782 0.57992,0.252166 1.0333,0.424151 0.66107,0.218654 1.33109,0.408069 2.00981,0.563435 0.16331,0.03738 0.32658,0.07585 0.4918,0.103592 0.0925,0.01553 0.3883,0.02598 0.16623,0.01728 -0.0803,0.107315 -0.14531,0.22802 -0.24094,0.321947 -0.016,0.01574 -0.0158,-0.0421 -0.022,-0.0637 -0.0205,-0.07196 -0.0407,-0.144063 -0.0581,-0.21685 -0.0821,-0.344075 -0.18013,-0.653124 -0.30668,-0.985541 -0.47869,-0.998366 -1.02522,-1.999165 -1.06292,-3.134105 -0.007,-0.224986 0.0276,-0.449374 0.0414,-0.674061 0.16102,-0.51366 0.15224,-0.711198 0.55546,-1.10127 0.72597,-0.702299 2.53821,-1.150818 3.46921,-1.42837 2.59829,-0.697905 5.27364,-1.035711 7.92351,-1.470536 2.26184,-0.371151 2.55637,-0.432742 4.81473,-0.838082 2.33881,-0.412426 4.66555,-0.892821 7.00606,-1.295772 1.39187,-0.239629 2.77052,-0.46924 4.18125,-0.566048 0.61933,-0.0425 1.24117,-0.03177 1.86175,-0.04766 0.55744,0.05556 1.13047,0.0245 1.67233,0.166673 0.44327,0.116309 0.82554,0.398206 1.23843,0.597065 0.5975,0.287774 1.19516,0.575223 1.79274,0.862834 0,0 -0.0108,0.02426 -0.0108,0.02426 v 0 c -0.60414,-0.249636 -1.17523,-0.603014 -1.81243,-0.748908 -0.93119,-0.213207 -1.94841,0.414696 -2.86281,-0.132204 -0.59971,0.01173 -1.20051,-0.0028 -1.79914,0.0352 -1.41009,0.08942 -2.73671,0.308182 -4.13025,0.53979 -2.34353,0.389497 -4.67465,0.850594 -7.01665,1.248862 -2.26103,0.390354 -2.56886,0.451818 -4.83262,0.80947 -2.11166,0.333623 -4.23964,0.604137 -6.33214,1.049621 -0.50824,0.108202 -1.00982,0.245614 -1.51473,0.368421 -0.95624,0.283215 -1.22552,0.33889 -2.10067,0.677869 -0.45493,0.17621 -1.05782,0.382475 -1.31467,0.847029 -0.0759,0.13722 -0.10336,0.296073 -0.15504,0.44411 -0.0136,0.184839 -0.046,0.369253 -0.0408,0.554517 0.0306,1.080735 0.59727,2.018556 1.06045,2.960295 0.14032,0.339871 0.26104,0.671518 0.37144,1.020887 0.0178,0.05641 0.0397,0.11144 0.0607,0.166756 0.0267,0.07054 0.0953,0.136478 0.0824,0.210799 -0.0321,0.184486 -0.13988,0.347422 -0.20982,0.521134 -0.0957,0.02827 -0.18775,0.07516 -0.28705,0.08479 -0.21598,0.02096 -0.71005,-0.08715 -0.87433,-0.122952 -0.7148,-0.155776 -1.41795,-0.360638 -2.11238,-0.589764 -0.5193,-0.198377 -0.63514,-0.228942 -1.12153,-0.465191 -0.56716,-0.275481 -1.0987,-0.619096 -1.67287,-0.880753 -0.73628,-0.252174 -1.4417,-0.03407 -2.19913,-0.0086 -0.3929,-0.02246 -0.57727,0.01865 -0.92524,-0.214585 -0.62351,-0.417901 -0.73186,-1.267018 -0.93996,-1.920562 -0.0264,-0.105519 -0.0943,-0.208825 -0.0793,-0.316556 0.008,-0.05845 0.15822,-0.05408 0.13888,-0.109836 -0.0199,-0.05753 -0.1261,-0.03865 -0.18208,-0.01471 -0.69481,0.297132 -1.26282,1.057836 -1.81745,1.529667 -0.81404,0.868326 -1.58132,1.77619 -2.39023,2.648707 -0.31334,0.337981 -1.04982,1.126942 -1.47958,1.386678 -0.22851,0.138108 -0.49873,0.190868 -0.7481,0.286301 -0.19841,-0.09065 -0.44149,-0.117187 -0.59522,-0.271947 -0.30526,-0.307308 -0.30194,-1.140806 -0.30035,-1.46237 0.008,-1.651659 0.31177,-3.289626 0.49376,-4.925211 0.29449,-2.12634 0.60665,-4.251391 0.87095,-6.381762 0.27865,-2.246121 0.37679,-3.243997 0.58635,-5.55843 0.0903,-0.997459 0.17015,-1.99584 0.25523,-2.99376 0,0 0.40404,0.02905 0.40404,0.02905 z"
         id="path827"
         style="opacity:1;vector-effect:none;fill:#000040;fill-opacity:1;fill-rule:nonzero;stroke:none;stroke-width:5;stroke-linecap:round;stroke-linejoin:round;stroke-miterlimit:4;stroke-dasharray:none;stroke-dashoffset:0;stroke-opacity:0.97058835;paint-order:fill markers stroke" />
    </g>
    <circle
       style="opacity:1;vector-effect:none;fill:none;fill-opacity:1;fill-rule:nonzero;stroke:#000000;stroke-width:1;stroke-linecap:round;stroke-linejoin:round;stroke-miterlimit:4;stroke-dasharray:none;stroke-dashoffset:0;stroke-opacity:1;paint-order:fill markers stroke"
       id="path974"
       cx="160"
       cy="137.00002"
       r="150" />
    <ellipse
       style="opacity:1;vector-effect:none;fill:#5353ff;fill-opacity:1;fill-rule:nonzero;stroke:none;stroke-width:5;stroke-linecap:round;stroke-linejoin:round;stroke-miterlimit:4;stroke-dasharray:none;stroke-dashoffset:0;stroke-opacity:0.97058835;paint-order:fill markers stroke"
       id="path978"
       cx="258.18442"
       cy="109.05488"
       rx="0.46527609"
       ry="0.20873223" />
    <path
       sodipodi:type="star"
       style="opacity:1;vector-effect:none;fill:none;fill-opacity:1;fill-rule:nonzero;stroke:#000000;stroke-width:1;stroke-linecap:round;stroke-linejoin:round;stroke-miterlimit:4;stroke-dasharray:none;stroke-dashoffset:0;stroke-opacity:1;paint-order:fill markers stroke"
       id="path4693"
       sodipodi:sides="6"
       sodipodi:cx="160"
       sodipodi:cy="137"
       sodipodi:r1="152.7525"
       sodipodi:r2="152.7525"
       sodipodi:arg1="-0.71372436"
       sodipodi:arg2="-0.19012558"
       inkscape:flatsided="true"
       inkscape:rounded="-6.3490879e-16"
       inkscape:randomized="0"
       d="M 275.47004,37.000016 304.33755,187 188.86751,286.99998 44.52996,236.99998 15.662453,87.000004 131.13249,-12.99998 Z"
       inkscape:transform-center-x="2.015748e-06"
       inkscape:transform-center-y="-2.015748e-06" />
    <path
       sodipodi:type="star"
       style="opacity:1;vector-effect:none;fill:none;fill-opacity:1;fill-rule:nonzero;stroke:#000000;stroke-width:1;stroke-linecap:round;stroke-linejoin:round;stroke-miterlimit:4;stroke-dasharray:none;stroke-dashoffset:0;stroke-opacity:1;paint-order:fill markers stroke"
       id="path4697"
       sodipodi:sides="6"
       sodipodi:cx="275.47006"
       sodipodi:cy="37.000008"
       sodipodi:r1="0.00026458333"
       sodipodi:r2="1.4911737e-11"
       sodipodi:arg1="-0.46364761"
       sodipodi:arg2="0.059951167"
       inkscape:flatsided="true"
       inkscape:rounded="-6.34909e-16"
       inkscape:randomized="0"
       d="m 275.4703,36.999889 -2e-5,2.64e-4 -2.3e-4,1.19e-4 -2.2e-4,-1.46e-4 10e-6,-2.64e-4 2.4e-4,-1.18e-4 z"
       inkscape:transform-center-x="3.4704888e-06" />
    <path
       sodipodi:type="star"
       style="opacity:1;vector-effect:none;fill:none;fill-opacity:1;fill-rule:nonzero;stroke:#000000;stroke-width:1;stroke-linecap:round;stroke-linejoin:round;stroke-miterlimit:4;stroke-dasharray:none;stroke-dashoffset:0;stroke-opacity:1;paint-order:fill markers stroke"
       id="path4708"
       sodipodi:sides="6"
       sodipodi:cx="275.47006"
       sodipodi:cy="37.000008"
       sodipodi:r1="0.00026458333"
       sodipodi:r2="1.3337464e-11"
       sodipodi:arg1="3.1415927"
       sodipodi:arg2="3.6651914"
       inkscape:flatsided="true"
       inkscape:rounded="-6.34909e-16"
       inkscape:randomized="0"
       d="m 275.4698,37.000008 1.3e-4,-2.3e-4 2.6e-4,0 1.4e-4,2.3e-4 -1.4e-4,2.29e-4 -2.6e-4,0 z"
       inkscape:transform-center-x="3.4704888e-06" />
    <path
       sodipodi:type="star"
       style="opacity:1;vector-effect:none;fill:none;fill-opacity:1;fill-rule:nonzero;stroke:#000000;stroke-width:1;stroke-linecap:round;stroke-linejoin:round;stroke-miterlimit:4;stroke-dasharray:none;stroke-dashoffset:0;stroke-opacity:1;paint-order:fill markers stroke"
       id="path4710"
       sodipodi:sides="6"
       sodipodi:cx="275.47006"
       sodipodi:cy="37.000008"
       sodipodi:r1="0.00026458333"
       sodipodi:r2="1.3337464e-11"
       sodipodi:arg1="0"
       sodipodi:arg2="0.52359878"
       inkscape:flatsided="true"
       inkscape:rounded="-6.34909e-16"
       inkscape:randomized="0"
       d="m 275.47033,37.000008 -1.4e-4,2.29e-4 h -2.6e-4 l -1.3e-4,-2.29e-4 1.3e-4,-2.3e-4 h 2.6e-4 z"
       inkscape:transform-center-x="3.4704888e-06" />
    <path
       sodipodi:type="star"
       style="opacity:1;vector-effect:none;fill:none;fill-opacity:1;fill-rule:nonzero;stroke:#000000;stroke-width:1;stroke-linecap:round;stroke-linejoin:round;stroke-miterlimit:4;stroke-dasharray:none;stroke-dashoffset:0;stroke-opacity:1;paint-order:fill markers stroke"
       id="path4712"
       sodipodi:sides="6"
       sodipodi:cx="275.47006"
       sodipodi:cy="37.000008"
       sodipodi:r1="0.00026458333"
       sodipodi:r2="1.4911737e-11"
       sodipodi:arg1="-0.46364761"
       sodipodi:arg2="0.059951167"
       inkscape:flatsided="true"
       inkscape:rounded="-6.34909e-16"
       inkscape:randomized="0"
       d="m 275.4703,36.999889 -2e-5,2.64e-4 -2.3e-4,1.19e-4 -2.2e-4,-1.46e-4 10e-6,-2.64e-4 2.4e-4,-1.18e-4 z"
       inkscape:transform-center-x="3.4704888e-06" />
  </g>
  <g
     inkscape:groupmode="layer"
     id="layer2"
     inkscape:label="description"
     style="display:none"
     transform="translate(0,23)">
    <path
       style="opacity:1;vector-effect:none;fill:#5353ff;fill-opacity:1;fill-rule:nonzero;stroke:none;stroke-width:5;stroke-linecap:round;stroke-linejoin:round;stroke-miterlimit:4;stroke-dasharray:none;stroke-dashoffset:0;stroke-opacity:0.97058835;paint-order:fill markers stroke"
       id="path886"
       d="m 191.99605,119.42464 c 0.56863,-0.40775 1.14095,-0.8104 1.70588,-1.22326 1.32584,-0.96898 1.75531,-1.29771 2.98787,-2.29481 1.11002,-0.89795 1.28783,-1.08531 2.41842,-1.97516 0.46823,-0.36854 0.94527,-0.72576 1.41791,-1.08864 3.73472,-2.76973 7.41801,-5.60659 11.18003,-8.33948 2.55463,-1.82197 5.09122,-3.67359 7.72307,-5.384019 1.51272,-0.98311 1.83937,-1.159394 3.35166,-2.062136 2.00079,-1.186008 4.09465,-2.257857 5.91406,-3.721976 0.34802,-0.421495 0.87253,0.409776 0.5556,0.740174 -0.49562,0.20777 -0.30296,0.05835 -0.60747,0.40743 0,0 -0.0219,-0.015 -0.0219,-0.015 v 0 c 0.0483,-0.09296 0.13802,-0.174339 0.14501,-0.278882 0.007,-0.109709 -0.0975,-0.202874 -0.10549,-0.312541 -0.022,-0.303115 0.44607,-0.173572 0.55197,-0.143195 0.0501,0.01437 -0.0887,0.05494 -0.13302,0.0824 -1.84832,1.473025 -3.96369,2.56132 -5.99489,3.751998 -1.47899,0.877792 -1.85409,1.082416 -3.33282,2.037239 -2.63046,1.698498 -5.16614,3.538458 -7.72055,5.347518 -3.76625,2.71899 -7.45644,5.53925 -11.19745,8.29255 -2.86162,2.18348 -5.57914,4.55481 -8.57263,6.56388 0,0 -0.26521,-0.38409 -0.26521,-0.38409 z"
       inkscape:connector-curvature="0" />
    <path
       style="opacity:1;vector-effect:none;fill:#5353ff;fill-opacity:1;fill-rule:nonzero;stroke:none;stroke-width:5;stroke-linecap:round;stroke-linejoin:round;stroke-miterlimit:4;stroke-dasharray:none;stroke-dashoffset:0;stroke-opacity:0.97058835;paint-order:fill markers stroke"
       id="path888"
       d="m 99.987533,163.48434 c -1.718805,-0.22508 -3.388326,-0.71735 -5.099167,-0.983 -0.651748,-0.10119 -1.3071,-0.17763 -1.960652,-0.26642 -3.43403,-0.57267 -6.823432,-1.38302 -10.233226,-2.0831 -0.737108,-0.14579 -1.47479,-0.2887 -2.211324,-0.43736 -1.772362,-0.35771 -3.245236,-0.66074 -5.014942,-1.07547 -3.000599,-0.70318 -5.971037,-1.51632 -8.941109,-2.33657 -6.70206,-1.9683 -13.4694,-3.69743 -20.228049,-5.45709 -5.337924,-1.40976 -10.638147,-2.95714 -15.979463,-4.35424 -3.869026,-1.012 -4.549656,-1.16042 -8.455102,-2.11235 -5.923173,-1.39987 -11.827684,-2.88658 -17.7939736,-4.09643 -3.26468099,-0.66201 -5.4959893,-1.04263 -8.7657283,-1.62818 -5.3414881,-0.88916 -10.6821281,-1.79338 -16.0464091,-2.53698 -3.199184,-0.44347 -4.040002,-0.52554 -7.213154,-0.89763 -3.085341,-0.32819 -6.176902,-0.60878 -9.274471,-0.79332 -1.726978,-0.10289 -3.225649,-0.17337 -4.949283,-0.15302 -0.717754,0.008 -1.434621,0.0532 -2.151933,0.0797 -2.207159,-0.24286 -1.172821,-0.25943 -3.103118,-0.0425 0,0 -0.0043,-0.0262 -0.0043,-0.0262 v 0 c 1.924989,-0.41147 0.897242,-0.15928 3.075625,-0.78695 0.731219,-0.0272 1.461984,-0.0731 2.193661,-0.0816 4.785336,-0.0552 9.55717,0.52012 14.313003,0.96054 3.198403,0.37749 4.011062,0.45644 7.235898,0.90718 5.372298,0.75088 10.7207506,1.66314 16.0699239,2.56053 3.3589943,0.60466 5.43426606,0.95858 8.7901887,1.64292 5.9727134,1.21796 11.8830354,2.71325 17.8121104,4.12256 3.864104,0.94733 4.640412,1.12077 8.469304,2.12603 5.33855,1.40161 10.635652,2.95421 15.969554,4.37311 6.760024,1.76981 13.526796,3.51683 20.226834,5.50583 2.956825,0.82633 5.913729,1.64388 8.900427,2.35714 1.949215,0.46548 3.057597,0.69447 4.994614,1.09767 0.737156,0.15345 1.475068,0.30324 2.212602,0.45485 3.393932,0.72411 6.76538,1.55656 10.178539,2.18543 0.249984,0.039 1.645912,0.25439 1.975461,0.315 1.697712,0.31225 3.356536,0.8206 5.069406,1.05953 0,0 -0.06177,0.40034 -0.06177,0.40034 z"
       inkscape:connector-curvature="0" />
    <flowRoot
       xml:space="preserve"
       id="flowRoot890"
       style="font-style:normal;font-variant:normal;font-weight:normal;font-stretch:normal;font-size:7.55905533px;line-height:100%;font-family:Overlock;-inkscape-font-specification:Overlock;letter-spacing:0px;word-spacing:0px;fill:#000000;fill-opacity:1;stroke:none"
       transform="scale(0.26458333)"><flowRegion
         id="flowRegion892"><rect
           id="rect894"
           width="6.4669361"
           height="9.0155478"
           x="934.79706"
           y="405.26965" /></flowRegion><flowPara
         id="flowPara896"></flowPara></flowRoot>    <flowRoot
       xml:space="preserve"
       id="flowRoot898"
       style="font-style:normal;font-variant:normal;font-weight:normal;font-stretch:normal;font-size:37.79527664px;line-height:100%;font-family:Overlock;-inkscape-font-specification:Overlock;letter-spacing:0px;word-spacing:0px;fill:#000000;fill-opacity:1;stroke:none"
       transform="scale(0.26458333)"><flowRegion
         id="flowRegion900"
         style="font-size:37.79527664px"><rect
           id="rect902"
           width="0.68067718"
           height="14.650388"
           x="893.04614"
           y="342.16019"
           style="font-size:37.79527664px" /></flowRegion><flowPara
         id="flowPara904">zeitZz</flowPara><flowPara
         id="flowPara906" /><flowPara
         id="flowPara908" /><flowPara
         id="flowPara910" /></flowRoot>    <text
       xml:space="preserve"
       style="font-style:normal;font-variant:normal;font-weight:normal;font-stretch:normal;font-size:10px;line-height:100%;font-family:Overlock;-inkscape-font-specification:Overlock;letter-spacing:0px;word-spacing:0px;fill:#000000;fill-opacity:1;stroke:none;stroke-width:0.26458332"
       x="234.37752"
       y="95.677849"
       id="text914"><tspan
         sodipodi:role="line"
         x="234.37752"
         y="95.677849"
         style="font-size:10px;stroke-width:0.26458332"
         id="tspan922">time adjustment</tspan></text>
    <text
       xml:space="preserve"
       style="font-style:normal;font-variant:normal;font-weight:normal;font-stretch:normal;font-size:10px;line-height:100%;font-family:Overlock;-inkscape-font-specification:Overlock;letter-spacing:0px;word-spacing:0px;fill:#000000;fill-opacity:1;stroke:none;stroke-width:0.26458332"
       x="-53.984898"
       y="130.22818"
       id="text930"><tspan
         sodipodi:role="line"
         id="tspan928"
         x="-53.984898"
         y="130.22818"
         style="font-size:10px;stroke-width:0.26458332">flexible hose</tspan></text>
  </g>
</svg>
